<svg xmlns="http://www.w3.org/2000/svg" xmlns:xlink="http://www.w3.org/1999/xlink" style="isolation:isolate" viewBox="0 0 1000 348" width="1000pt" height="348pt"><defs><clipPath id="_clipPath_QmIvbDXMQn7BXufd14dYF374XpO4bcVx"><rect width="1000" height="348"></rect></clipPath></defs><g clip-path="url(#_clipPath_QmIvbDXMQn7BXufd14dYF374XpO4bcVx)"><rect width="1000" height="348" style="fill:rgb(0,0,0)" fill-opacity="0"></rect><g><path d=" M 141.015 195.856 C 141.015 199.024 141.015 201.197 141.015 203.368 C 141.015 247.968 141.022 292.568 141.004 337.17 C 141.001 347.09 140.962 347.079 130.762 347.058 C 122.577 347.042 114.391 347.055 105.256 347.055 L 105.256 276.055 C 104.702 275.896 104.149 275.738 103.594 275.578 C 102.613 277.082 101.567 278.547 100.662 280.095 C 96.316 287.524 91.339 294.68 87.876 302.504 C 84.426 310.292 79.2 311.454 71.388 311.74 C 62.008 312.088 56.467 309.527 52.571 300.757 C 48.715 292.079 43.195 284.137 37.014 276.338 L 37.014 347.039 C 25.245 347.039 14.045 347.206 2.869 346.76 C 1.835 346.72 0.152 342.776 0.134 340.633 C -0.062 317.335 0.015 294.034 0.015 270.736 C 0.017 246.131 0.017 221.527 0.017 195.974 C 11.833 195.974 23.279 195.702 34.685 196.258 C 36.475 196.344 38.492 199.984 39.712 202.338 C 49.554 221.322 59.226 240.392 68.975 259.425 C 69.363 260.181 69.993 260.817 71.104 262.3 C 77.843 249.119 84.303 236.488 90.758 223.856 C 94.681 216.179 98.703 208.547 102.468 200.793 C 104.205 197.209 106.464 195.612 110.669 195.753 C 120.388 196.079 130.125 195.856 141.015 195.856 Z  M 204.03 270.41 C 204.666 279.498 205.08 288.563 205.987 297.576 C 207.103 308.67 215.348 316.053 225.808 315.823 C 235.966 315.6 244.524 308.089 244.875 297.425 C 245.451 279.986 245.452 262.502 244.887 245.063 C 244.522 233.78 236.34 226.828 225.305 226.798 C 214.589 226.772 207.095 233.504 205.973 244.596 C 205.106 253.166 204.664 261.779 204.03 270.41 Z  M 167.087 268.22 C 168.03 258.911 168.526 246.721 170.634 234.815 C 174.451 213.272 196.956 195.276 218.878 194.581 C 233.311 194.123 247.021 195.517 259.256 204.172 C 273.138 213.993 281.065 227.332 281.699 244.173 C 282.388 262.479 282.348 280.851 281.727 299.165 C 280.877 324.146 258.427 345.643 233.187 347.515 C 216.219 348.77 200.899 345.994 187.377 334.897 C 176.487 325.958 170.76 314.498 169.235 300.883 C 168.13 291.011 167.893 281.04 167.087 268.22 Z  M 293.24 195.848 C 304.346 195.848 315.2 195.648 326.034 196.046 C 327.824 196.113 330.523 198.494 331.101 200.339 C 338.388 223.589 345.345 246.942 352.437 270.253 C 353.312 273.137 354.479 275.931 356.141 280.501 C 361.642 261.931 366.624 245.137 371.589 228.337 C 374.387 218.866 377.021 209.344 380.062 199.954 C 380.591 198.322 382.753 196.106 384.213 196.067 C 395.677 195.744 407.153 195.888 419.171 195.888 C 409.131 226.348 399.334 256.166 389.471 285.964 C 383.404 304.294 377.058 322.534 371.235 340.939 C 369.676 345.865 367.265 347.574 362.272 347.146 C 357.43 346.73 352.51 346.855 347.649 347.132 C 343.714 347.358 341.794 346.037 340.506 342.106 C 324.865 294.313 309.024 246.587 293.264 198.833 C 293.07 198.243 293.24 197.531 293.24 195.848 Z  M 435.498 196.199 L 471.997 196.199 C 472.108 198.268 472.278 199.979 472.28 201.692 C 472.294 247.851 472.205 294.008 472.405 340.165 C 472.429 345.656 471.006 347.619 465.344 347.213 C 457.852 346.676 450.27 346.553 442.782 347.059 C 436.902 347.457 435.316 345.716 435.353 339.761 C 435.621 296.49 435.498 253.214 435.498 209.943 L 435.498 196.199 Z " fill-rule="evenodd" fill="rgb(255,255,255)"></path><path d=" M 715.102 194.023 C 712.809 190.957 710.809 188.282 708.808 185.608 L 708.808 185.608 C 708.808 185.608 708.945 185.74 708.931 185.726 C 706.458 188.484 704.001 191.253 701.543 194.023 L 704.333 194.023 C 705.102 192.932 705.913 191.784 706.855 190.447 C 709.039 191.648 711.119 192.792 713.359 194.023 L 715.102 194.023 L 715.102 194.023 Z  M 731.432 110.982 C 731.132 111.507 730.831 112.033 730.531 112.56 C 733.199 114.278 735.754 116.221 738.582 117.611 C 739.763 118.19 741.521 117.593 743.016 117.53 C 742.472 115.994 742.292 113.46 741.321 113.106 C 738.181 111.967 734.75 111.63 731.432 110.982 L 731.432 110.982 L 731.432 110.982 Z  M 976.394 187.968 C 981.682 185.549 983.124 182.325 980.12 177.557 C 979.156 176.028 976.016 175.87 973.891 175.091 C 974.956 180.583 975.672 184.286 976.394 187.968 L 976.394 187.968 L 976.394 187.968 Z  M 763.499 3.67 L 740.733 3.67 C 744.631 9.537 754.71 9.554 763.499 3.67 L 763.499 3.67 L 763.499 3.67 Z  M 828.967 61.591 C 828.516 62.391 828.066 63.191 827.615 63.991 C 830.088 68.028 832.561 72.068 836.029 77.728 C 838.468 72.154 839.985 68.697 842.056 63.967 C 837.031 63.054 832.998 62.322 828.967 61.591 L 828.967 61.591 L 828.967 61.591 Z  M 732.062 4.73 C 724.717 6.351 719.65 7.473 713.915 8.74 C 718.771 13.563 722.379 19.152 728.483 13.873 C 730.331 12.276 730.554 8.801 732.062 4.73 L 732.062 4.73 L 732.062 4.73 Z  M 637.278 58.158 C 644.574 57.952 648.902 50.824 656.087 50.732 C 656.67 50.727 657.863 49.021 657.675 48.537 C 657.293 47.561 656.287 46.61 655.302 46.125 C 648.409 42.742 644.156 48.867 638.758 50.878 C 634.321 52.533 634.698 55.181 637.278 58.158 L 637.278 58.158 L 637.278 58.158 Z  M 800.858 12.034 C 803.354 20.834 805.099 22.303 812.282 23.984 C 815.58 24.754 818.605 26.687 823.01 28.652 C 823.419 28.268 825.139 26.655 826.991 24.918 C 819.828 21.743 813.538 18.954 807.248 16.165 C 807.224 15.681 807.199 15.197 807.173 14.712 L 816.129 14.712 C 816.206 14.161 816.285 13.612 816.364 13.061 C 811.439 11.608 806.278 11.506 800.858 12.034 L 800.858 12.034 L 800.858 12.034 Z  M 757.931 19.944 C 766.013 17.38 773.212 15.095 780.997 12.622 C 773.119 3.766 764.905 9.505 757.085 9.214 C 757.581 10.916 758.213 12.262 758.317 13.649 C 758.447 15.349 758.133 17.083 757.931 19.944 L 757.931 19.944 L 757.931 19.944 Z  M 910.177 102.319 C 909.912 102.923 909.649 103.525 909.384 104.129 C 919.07 109.52 923.887 122.083 937.348 122.807 C 937.216 105.212 924.256 91.052 915.616 95.954 C 918.469 97.86 921.116 99.629 925.142 102.319 L 910.177 102.319 L 910.177 102.319 L 910.177 102.319 Z  M 865.899 72.603 C 866.449 72.007 866.995 71.41 867.544 70.813 C 861.87 66.998 863.351 62.745 865.143 57.773 C 867.088 52.37 861.443 42.68 855.366 39.913 C 852.184 46.864 848.823 53.756 845.998 60.861 C 845.571 61.933 847.265 64.811 848.639 65.464 C 854.251 68.137 860.124 70.271 865.899 72.603 L 865.899 72.603 L 865.899 72.603 Z  M 655.487 57.756 C 650.099 62.11 644.834 65.973 642.203 73.735 C 640.069 80.036 634.114 85.296 629.117 90.28 C 626.018 93.376 621.546 95.099 617.687 97.437 L 618.35 99.051 C 622.88 98.555 627.399 97.788 631.94 97.616 C 641.629 97.249 642.849 96.126 644.525 86.291 C 645.583 80.076 647.154 73.949 648.665 66.996 C 649.535 72.108 650.232 76.199 650.899 80.113 C 653.953 78.026 656.311 76.412 659.513 74.225 C 658.307 69.297 656.935 63.683 655.487 57.756 L 655.487 57.756 L 655.487 57.756 Z  M 787.415 58.051 C 787.425 57.4 787.436 56.748 787.447 56.096 C 784.616 56.599 781.711 56.866 778.973 57.679 C 776.534 58.403 774.331 59.89 771.925 60.771 C 765.267 63.205 758.434 65.209 751.911 67.956 C 747.862 69.66 746.344 76.8 748.913 79.978 C 752.323 84.197 755.904 88.276 759.707 92.765 C 765.758 85.236 770.79 79.402 775.27 73.174 C 776.901 70.91 777.218 67.702 778.134 64.925 C 777.49 64.404 776.848 63.884 776.204 63.363 C 779.942 61.592 783.679 59.823 787.415 58.051 L 787.415 58.051 L 787.415 58.051 Z  M 648.658 134.547 C 647.893 134.473 647.129 134.399 646.362 134.324 C 645.81 138.16 645.253 141.995 644.677 145.986 C 640.708 144.105 640.708 144.105 639.985 126.816 C 633.631 138.747 627.28 150.677 620.69 163.055 C 630.92 167.555 640.058 171.574 649.044 175.526 C 658.244 160.94 645.811 148.059 648.658 134.547 L 648.658 134.547 L 648.658 134.547 Z  M 970.371 160.107 C 973.056 159.436 974.927 158.957 976.804 158.505 C 984.311 156.692 985.341 155.305 982.654 148.213 C 973.921 125.166 961.488 104.218 945.962 85.106 C 945.161 84.122 943.608 83.748 941.981 82.856 C 941.551 84.423 940.884 85.471 941.172 86.003 C 953.943 109.582 965.607 133.599 970.371 160.107 L 970.371 160.107 L 970.371 160.107 Z  M 759.995 21.585 C 760.372 21.932 760.751 22.28 761.13 22.626 C 759.524 25.03 758.378 28.717 756.188 29.502 C 753.734 30.383 750.338 28.64 747.353 28.04 C 750.349 31.996 753.657 35.811 757.745 37.047 C 760.512 37.88 764.377 35.085 768.19 33.759 C 768.712 36.243 769.205 38.602 769.702 40.96 C 770.318 41.083 770.937 41.206 771.555 41.329 C 772.136 39.444 773.489 37.408 773.154 35.702 C 772.197 30.829 774.921 29.809 778.512 28.884 C 779.739 33.761 779.567 39.397 782.297 42.173 C 785.091 45.011 790.734 45.044 795.13 46.306 C 794.649 43.38 793.779 41.755 792.426 40.874 C 788.466 38.296 790.307 34.586 791.801 32.571 C 793.322 30.523 797.252 28.537 799.479 29.096 C 804.342 30.32 808.793 33.177 813.767 35.534 C 815.19 34.033 816.596 32.552 818.223 30.836 C 813.856 28.982 809.988 27.484 806.248 25.714 C 802.331 23.858 798.536 21.741 796.144 20.495 C 794.493 17.101 793.419 14.897 792.347 12.692 C 791.797 12.985 791.246 13.277 790.697 13.568 C 790.432 15.083 790.169 16.595 789.861 18.359 C 783.224 13.865 780.7 14.281 777.592 19.251 C 775.99 21.811 773.587 23.868 771.543 26.153 C 769.944 24.088 768.343 22.024 766.421 19.542 C 764.451 20.169 762.223 20.878 759.995 21.585 L 759.995 21.585 L 759.995 21.585 Z  M 843.046 62.228 C 846.58 54.27 850.189 46.152 853.465 38.772 C 849.739 36.382 846.787 34.484 843.834 32.589 C 843.993 32.013 844.155 31.438 844.314 30.862 C 846.363 30.523 848.411 30.183 850.459 29.844 C 850.057 30.199 849.655 30.553 849.253 30.908 C 846.61 28.74 843.969 26.573 841.326 24.407 C 841.85 23.282 842.375 22.159 842.9 21.036 C 834.311 25.474 825.724 29.914 816.696 34.579 C 818.561 36.876 819.549 38.098 820.632 39.432 C 817.779 39.133 815.309 38.875 811.375 38.463 C 815.827 41.89 819.093 43.923 821.764 46.559 C 827.884 52.596 832.107 60.955 843.046 62.228 L 843.046 62.228 L 843.046 62.228 Z  M 798.817 69.443 C 804.328 68.679 813.616 70.331 814.472 61.899 C 815.292 53.849 806.496 52.652 799.486 50.144 C 798.375 58.181 784.175 57.429 787.873 67.165 C 777.952 69.873 774.089 78.918 768.154 85.418 C 761.46 92.751 763.219 101.665 762.927 112.253 C 769.065 106.066 772.992 99.84 780.521 98.428 C 781.664 98.214 782.508 95.685 783.238 94.109 C 785.86 88.435 788.375 82.714 791.178 76.459 C 793.208 78.046 793.798 78.746 794.549 79.055 C 802.134 82.173 806.101 86.931 804.17 95.882 C 803.463 99.171 805.941 102.261 810.485 100.431 C 811.885 99.866 813.282 99.292 815.936 98.209 L 815.936 117.869 C 816.634 117.976 817.333 118.081 818.031 118.188 C 823.712 105.505 829.391 92.823 835.536 79.109 C 832.403 79.609 830.409 79.927 829.457 80.08 C 827.212 77.407 825.362 75.199 823.509 72.991 C 822.798 73.507 822.087 74.025 821.376 74.543 L 821.376 87.925 C 818.593 85.562 817.017 84.225 814.751 82.302 C 814.878 85.099 814.96 86.926 815.058 89.104 C 809.467 82.335 804.179 75.933 798.817 69.443 L 798.817 69.443 L 798.817 69.443 Z  M 843.837 65.367 C 835.522 84.044 827.716 101.512 819.988 119.015 C 819.297 120.579 818.163 123.064 818.814 123.929 C 824.141 130.995 818.186 132.648 813.182 134.952 C 833.477 146.054 853.228 156.86 873.741 168.082 C 879.868 146.595 884.101 125.022 885.821 102.991 C 885.171 102.416 884.52 101.842 883.871 101.268 C 875.854 106.682 867.835 112.098 860.139 117.297 C 851.612 111.305 852.109 103.858 853.081 95.124 C 854.02 86.705 855.225 79.838 866.091 77.372 C 857.616 72.802 851.131 69.302 843.837 65.367 L 843.837 65.367 L 843.837 65.367 Z  M 592.711 109.006 C 594.412 107.146 596.743 105.54 597.622 103.351 C 598.405 101.4 598.082 97.003 597.38 96.809 C 594.6 96.036 591.481 96.491 587.057 96.491 C 589.066 99.331 589.93 100.554 590.797 101.779 C 587.862 104.052 585.363 105.986 582.866 107.92 C 583.361 108.643 583.857 109.367 584.352 110.091 C 586.467 109.238 588.55 108.267 590.728 107.627 C 591.213 107.484 592.037 108.509 592.706 108.997 C 590.003 111.138 584.887 113.436 585.014 115.392 C 585.588 124.185 581.597 129.742 574.898 134.248 C 572.741 135.7 570.689 137.306 566.904 140.072 C 572.243 140.8 575.898 141.298 578.947 141.714 C 578.278 146.112 582.934 145.105 585.244 146.914 C 590.433 137.323 595.807 128.445 599.97 119.031 C 601.158 116.342 599.005 112.044 597.894 108.644 C 597.762 108.244 594.516 108.862 592.711 109.006 L 592.711 109.006 L 592.711 109.006 Z  M 923.848 179.787 C 926.695 170.217 929.648 168.727 935.512 173.922 C 932.83 177.972 932.075 185.22 923.848 179.787 L 923.848 179.787 L 923.848 179.787 Z  M 574.567 159.844 C 572.733 163.452 570.9 167.061 569.066 170.669 C 568.287 170.45 567.506 170.232 566.725 170.013 C 567.445 166.903 567.801 163.635 569.051 160.757 C 569.617 159.46 571.969 158.939 573.508 158.065 C 573.863 158.658 574.214 159.251 574.567 159.844 L 574.567 159.844 L 574.567 159.844 Z  M 584.442 149.357 C 578.641 146.602 573.443 144.036 568.164 141.653 C 561.946 138.847 559.894 139.838 558.964 146.479 C 557.053 160.1 559.31 173.164 565.186 185.541 C 566.014 187.287 568.185 188.393 570.833 190.788 C 571.781 183.199 572.437 177.952 573.117 172.524 C 573.836 171.934 576.005 171.016 576.679 169.454 C 579.456 163.015 581.778 156.383 584.442 149.357 L 584.442 149.357 L 584.442 149.357 Z  M 980.071 194.023 C 979.261 193.481 978.499 192.796 977.791 191.938 C 982.756 190.37 987.75 188.793 993.5 186.976 L 993.5 186.976 C 993.76 188.469 994.205 191.021 994.727 194.023 L 998.024 194.023 C 997.18 189.434 996.129 184.892 994.999 180.369 C 982.85 131.763 959.358 89.827 921.219 56.68 C 881.203 21.899 834.792 3.022 781.774 0.328 C 750.049 -1.283 719.189 2.994 689.487 14.151 C 650.597 28.759 617.822 52.177 591.564 84.467 C 567.632 113.897 551.579 147.107 544.706 184.503 C 543.977 188.484 543.057 191.833 540.838 194.023 L 554.082 194.023 C 545.763 182.783 552.639 171.567 555.147 160.477 L 555.147 160.477 C 558.462 171.552 561.78 182.627 565.193 194.023 L 574.135 194.023 C 574.071 193.508 574.045 192.909 574.054 192.204 C 574.236 176.953 581.616 164.24 586.307 150.019 C 591.277 152.107 595.444 154.024 599.731 155.614 C 603.921 157.165 608.233 158.387 612.49 159.752 C 604.424 155.918 596.36 152.083 587.027 147.646 C 592.968 136.916 598.65 126.625 604.382 116.36 C 604.8 115.614 605.888 115.178 606.153 114.418 C 611.822 98.211 625.365 99.91 640.646 99.629 C 636.898 106.551 635.155 113.716 630.604 117.054 C 626.067 120.384 618.714 119.877 612.998 120.975 C 615.642 122.66 618.34 124.376 621.036 126.093 C 621.048 127.042 621.062 127.992 621.074 128.941 C 627.268 126.565 633.463 124.189 640.155 121.621 C 639.577 123.015 638.974 124.885 638.068 126.595 C 633.01 136.128 627.545 145.463 622.905 155.195 C 620.39 160.468 617.843 163.066 612.239 159.543 C 614.174 161.379 616.111 163.219 617.903 164.921 C 614.207 174.846 610.635 184.437 607.065 194.023 L 608.821 194.023 C 612.521 184.585 616.237 175.104 620.485 164.268 C 633.482 173.229 650.15 173.794 659.058 188.187 C 660.605 190.687 664.185 191.842 666.436 194.023 L 695.851 194.023 C 695.618 192.235 695.842 189.37 694.908 188.923 C 692.9 187.959 689.787 187.443 687.93 188.363 C 682.098 191.244 677.623 188.752 673.249 185.609 C 668.537 182.225 672.036 178.536 673.235 174.988 C 673.8 173.315 674.314 171.618 674.994 169.991 C 678.951 160.488 686.131 157.63 695.578 161.707 C 698.004 162.753 700.464 164.449 702.948 164.512 C 714.887 164.824 715.565 165.877 710.766 176.414 C 709.499 179.196 705.14 181.82 708.945 185.739 L 708.945 185.739 L 708.808 185.607 C 710.445 182.011 712.084 178.415 714.204 173.761 C 715.343 178.48 716.133 181.745 716.921 185.009 C 717.57 185.002 718.22 184.995 718.867 184.988 C 720.033 182.485 721.93 180.065 722.228 177.462 C 723.237 168.664 728.443 164.991 736.644 164.282 C 740.682 163.933 743.127 161.695 746.177 158.808 C 750.41 154.805 755.07 149.615 762.43 150.061 C 764.407 150.18 766.407 147.504 768.606 146.955 C 771.834 146.149 776.701 144.531 778.312 146.023 C 783.115 150.47 787.496 149.054 793.159 147.051 C 784.816 141.302 790.57 136.017 793.263 130.498 C 798.235 132.579 803.193 134.656 807.701 136.542 C 806.332 141.423 805.574 145.842 803.87 149.861 C 799.056 161.221 793.294 172.211 788.989 183.75 C 787.346 188.157 785.448 191.769 782.647 194.023 L 786.396 194.023 L 786.396 194.023 C 793.972 177.065 800.85 161.664 808.012 145.635 C 811.341 147.82 813.958 149.538 817.296 151.728 C 818.13 148.743 818.916 145.928 819.971 142.148 C 823.974 143.924 827.986 145.407 831.717 147.411 C 843.951 153.985 856.068 160.786 868.272 167.42 C 872.144 169.523 873.06 172.018 871.726 176.52 C 868.633 186.966 867.26 191.792 863.492 194.023 L 869.922 194.023 C 869.552 193.185 869.324 192.377 869.474 191.624 C 870.74 185.272 873.025 179.123 875.299 171.604 C 886.312 179.4 896.493 186.608 906.672 193.815 C 906.625 193.885 906.578 193.954 906.53 194.023 L 910.22 194.023 C 909.788 193.781 909.373 193.522 908.983 193.252 C 898.824 186.209 888.757 179.029 878.834 171.657 C 877.476 170.647 876.145 168.106 876.44 166.593 C 880.559 145.437 884.964 124.334 889.232 103.546 C 892.228 102.821 895.791 101.702 899.438 101.193 C 900.963 100.98 902.929 101.695 904.243 102.626 C 908.029 105.31 912.265 107.8 915 111.379 C 916.872 113.829 916.999 117.964 917.072 121.363 C 917.22 128.127 921.9 130.598 927.071 131.43 C 939.414 133.417 940.948 134.41 942.718 146.168 C 943.377 150.532 943.736 154.945 944.043 159.349 C 944.128 160.579 943.97 162.395 943.183 163.022 C 938.78 166.541 940.618 171.281 939.793 175.625 C 938.873 180.463 934.979 184.737 932.157 189.646 L 932.157 189.646 C 935.688 190.558 939.556 191.56 943.424 192.562 L 943.58 194.023 L 947.139 194.023 C 947.162 193.42 947.659 179.889 947.659 179.889 C 947.603 179.449 947.425 178.987 947.506 178.575 C 949.716 167.273 943.989 156.7 944.566 145.574 C 944.596 145.017 945.99 144.531 946.75 144.012 C 942.339 129.468 937.803 114.959 933.596 100.355 C 932.273 95.761 931.837 90.908 930.997 86.175 C 938.577 86.496 941.481 92.049 944.777 97.742 C 956.948 118.757 964.691 141.319 969.277 165.06 C 969.444 165.923 969.493 166.816 969.514 167.697 C 969.551 169.235 969.525 170.772 968.31 172.908 C 965.572 168.656 963.089 164.21 960.037 160.196 C 955.749 154.561 951.041 149.245 946.511 143.794 L 946.511 143.794 C 953.9 155.619 961.49 167.325 968.6 179.316 C 972.813 186.422 970.421 189.979 962.171 190.734 C 959.537 190.974 957.029 192.534 954.447 193.443 C 953.89 193.64 953.331 193.832 952.769 194.023 L 980.071 194.023 L 980.071 194.023 Z " fill-rule="evenodd" fill="rgb(255,255,255)"></path><path d=" M 686.115 253.73 L 686.115 253.73 L 686.115 253.73 L 686.115 253.73 L 698.671 293.362 L 686.115 253.73 C 685.571 253.772 685.031 253.811 684.488 253.853 L 684.488 253.853 C 680.18 266.779 675.873 279.703 671.32 293.362 L 671.32 293.362 L 698.671 293.362 L 698.671 293.362 C 694.252 279.415 690.183 266.573 686.115 253.73 Z  M 576.042 197.023 C 576.62 197.313 577.334 197.538 578.199 197.798 C 587.19 200.492 595.237 204.848 602.097 211.927 C 594.749 219.744 587.699 227.247 580.363 235.05 C 570.589 226.434 559.889 225.358 548.908 226.301 C 545.128 226.626 541.216 228.079 537.842 229.901 C 533.062 232.486 530.631 237.705 532.611 242.303 C 534.285 246.189 538.523 250.469 542.469 251.58 C 552.141 254.302 562.392 254.878 572.244 257.063 C 599.161 263.032 605.325 279.915 604.696 302.736 C 603.912 331.274 581.358 344.4 557.878 347.023 C 542.341 348.761 526.324 348.95 511.529 342.18 C 504.02 338.743 497.038 334.149 489.449 329.868 C 498.107 321.421 505.627 314.082 513.562 306.339 C 523.62 313.092 535.601 316.221 548.436 315.745 C 552.339 315.602 556.335 314.87 560.057 313.68 C 566.627 311.577 569.161 307.081 568.899 299.85 C 568.659 293.225 564.942 289.741 558.815 288.69 C 549.478 287.088 539.978 286.291 530.754 284.227 C 509.687 279.515 498.518 266.784 496.786 246.51 C 495.046 226.162 505.766 207.778 524.036 199.949 C 526.465 198.908 528.973 197.58 531.496 197.023 L 576.042 197.023 L 576.042 197.023 Z  M 998.543 197.023 C 1000.123 206.765 1000.655 216.748 998.932 227.245 C 997.057 227.335 994.725 227.543 992.394 227.547 C 975.307 227.575 958.217 227.735 941.132 227.458 C 935.897 227.371 933.305 228.668 933.457 234.344 C 934.115 258.749 928.985 254.146 952.071 254.515 C 964.454 254.713 976.847 254.55 989.788 254.55 L 989.788 286.309 C 980.051 286.309 970.367 286.314 960.681 286.307 C 953.587 286.303 946.476 286.007 939.412 286.447 C 937.418 286.57 933.992 288.723 933.896 290.127 C 933.359 298.013 933.638 305.952 933.638 314.491 L 999.646 314.491 C 999.646 324.35 999.816 333.596 999.456 342.822 C 999.404 344.147 996.801 346.476 995.376 346.479 C 963.44 346.56 931.506 346.379 899.571 346.223 C 899.171 346.221 898.774 345.865 897.971 345.483 L 897.971 197.023 L 998.543 197.023 L 998.543 197.023 Z  M 871.408 197.023 C 871.696 197.691 871.905 198.358 871.928 199.014 C 872.249 208.258 872.056 217.521 872.056 227.556 C 858.96 227.556 846.601 227.552 834.242 227.556 C 826.698 227.558 819.14 227.345 811.615 227.744 C 809.886 227.835 806.901 229.962 806.826 231.287 C 806.371 239.193 806.601 247.138 806.601 255.771 L 862.031 255.771 L 862.031 287.751 L 806.55 287.751 C 806.55 305.482 806.234 322.097 806.706 338.694 C 806.894 345.318 804.727 347.02 798.419 346.653 C 789.184 346.113 779.893 346.514 770.21 346.514 L 770.21 197.023 L 871.408 197.023 L 871.408 197.023 Z  M 697.88 197.023 C 698.818 198.329 699.722 199.69 700.271 201.183 C 717.474 247.875 734.549 294.615 751.623 341.355 C 752.141 342.769 752.339 344.298 752.881 346.602 C 741.154 346.602 729.882 346.785 718.629 346.4 C 716.998 346.344 714.62 343.845 714.011 342.006 C 707.967 323.713 708.051 323.685 688.802 323.678 C 681.479 323.676 674.153 323.74 666.829 323.643 C 662.868 323.592 660.274 324.787 658.984 329.01 C 657.207 334.821 656.289 342.682 652.159 345.497 C 647.884 348.415 640.211 346.395 634.025 346.457 C 628.284 346.514 622.541 346.469 615.707 346.469 C 620.797 332.165 625.442 318.917 630.223 305.716 C 643.042 270.313 655.955 234.943 668.616 199.482 C 668.844 198.841 668.699 197.937 668.353 197.023 L 697.88 197.023 L 697.88 197.023 Z " fill-rule="evenodd" fill="rgb(255,255,255)"></path></g></g></svg>